G04*
G04 #@! TF.GenerationSoftware,Altium Limited,Altium Designer,19.1.5 (86)*
G04*
G04 Layer_Color=32896*
%FSLAX25Y25*%
%MOIN*%
G70*
G01*
G75*
%ADD10C,0.00787*%
%ADD13C,0.01000*%
%ADD14C,0.00600*%
%ADD18C,0.00394*%
%ADD19C,0.00098*%
D10*
X274925Y149547D02*
X278075D01*
X274925Y155453D02*
X278075D01*
X304453Y160925D02*
Y164075D01*
X298547Y160925D02*
Y164075D01*
X163898Y141126D02*
Y156874D01*
X151102Y141126D02*
Y156874D01*
X183398Y141126D02*
Y156874D01*
X170602Y141126D02*
Y156874D01*
X202898Y141126D02*
Y156874D01*
X190102Y141126D02*
Y156874D01*
D13*
X198500Y169200D02*
Y175198D01*
X195501D01*
X194501Y174198D01*
Y172199D01*
X195501Y171199D01*
X198500D01*
X196501D02*
X194501Y169200D01*
X188503Y175198D02*
X190503Y174198D01*
X192502Y172199D01*
Y170200D01*
X191502Y169200D01*
X189503D01*
X188503Y170200D01*
Y171199D01*
X189503Y172199D01*
X192502D01*
X179000Y169200D02*
Y175198D01*
X176001D01*
X175001Y174198D01*
Y172199D01*
X176001Y171199D01*
X179000D01*
X177001D02*
X175001Y169200D01*
X169003Y175198D02*
X173002D01*
Y172199D01*
X171003Y173199D01*
X170003D01*
X169003Y172199D01*
Y170200D01*
X170003Y169200D01*
X172002D01*
X173002Y170200D01*
X159500Y169200D02*
Y175198D01*
X156501D01*
X155501Y174198D01*
Y172199D01*
X156501Y171199D01*
X159500D01*
X157501D02*
X155501Y169200D01*
X150503D02*
Y175198D01*
X153502Y172199D01*
X149503D01*
X261499Y194002D02*
X260499Y193002D01*
X258500D01*
X257500Y194002D01*
Y198000D01*
X258500Y199000D01*
X260499D01*
X261499Y198000D01*
X263498Y199000D02*
Y193002D01*
X266497D01*
X267497Y194002D01*
Y196001D01*
X266497Y197001D01*
X263498D01*
X265497D02*
X267497Y199000D01*
X269496D02*
X271496D01*
X270496D01*
Y193002D01*
X269496Y194002D01*
X313501Y165998D02*
X314501Y166998D01*
X316500D01*
X317500Y165998D01*
Y162000D01*
X316500Y161000D01*
X314501D01*
X313501Y162000D01*
X311502Y165998D02*
X310502Y166998D01*
X308503D01*
X307503Y165998D01*
Y164999D01*
X308503Y163999D01*
X307503Y162999D01*
Y162000D01*
X308503Y161000D01*
X310502D01*
X311502Y162000D01*
Y162999D01*
X310502Y163999D01*
X311502Y164999D01*
Y165998D01*
X310502Y163999D02*
X308503D01*
X261501Y153998D02*
X262501Y154998D01*
X264500D01*
X265500Y153998D01*
Y150000D01*
X264500Y149000D01*
X262501D01*
X261501Y150000D01*
X259502Y154998D02*
X255503D01*
Y153998D01*
X259502Y150000D01*
Y149000D01*
D14*
X287850Y194700D02*
G03*
X287850Y194700I-500J0D01*
G01*
X280800Y162800D02*
Y190200D01*
X265200Y162800D02*
X280800D01*
X265200D02*
Y190200D01*
X280800D01*
D18*
X344713Y249500D02*
X346287D01*
X345500Y248713D02*
Y250287D01*
X330713Y249610D02*
X332287D01*
X331500Y248823D02*
Y250398D01*
X376713Y173500D02*
X378287D01*
X377500Y172713D02*
Y174287D01*
D19*
X125000Y275000D02*
X137992Y262008D01*
X112008D02*
X125000Y275000D01*
Y275000D02*
X137992Y287992D01*
X112008Y262008D02*
X137992D01*
X137992Y262008D02*
Y287992D01*
X112008Y287992D02*
X137992D01*
X112008Y262008D02*
Y287992D01*
Y287992D02*
X125000Y275000D01*
X375000Y275000D02*
X387992Y262008D01*
X362008D02*
X375000Y275000D01*
Y275000D02*
X387992Y287992D01*
X362008Y262008D02*
X387992D01*
X387992Y262008D02*
Y287992D01*
X362008Y287992D02*
X387992D01*
X362008Y262008D02*
Y287992D01*
Y287992D02*
X375000Y275000D01*
X375000Y125000D02*
X387992Y112008D01*
X362008D02*
X375000Y125000D01*
Y125000D02*
X387992Y137992D01*
X362008Y112008D02*
X387992D01*
X387992Y112008D02*
Y137992D01*
X362008Y137992D02*
X387992D01*
X362008Y112008D02*
Y137992D01*
Y137992D02*
X375000Y125000D01*
X125000Y125000D02*
X137992Y112008D01*
X112008D02*
X125000Y125000D01*
Y125000D02*
X137992Y137992D01*
X112008Y112008D02*
X137992D01*
X137992Y112008D02*
Y137992D01*
X112008Y137992D02*
X137992D01*
X112008Y112008D02*
Y137992D01*
Y137992D02*
X125000Y125000D01*
M02*
