G04*
G04 #@! TF.GenerationSoftware,Altium Limited,Altium Designer,19.1.5 (86)*
G04*
G04 Layer_Color=255*
%FSLAX25Y25*%
%MOIN*%
G70*
G01*
G75*
%ADD18C,0.04724*%
%ADD19C,0.00394*%
%ADD20C,0.00098*%
%ADD21R,0.06693X0.04331*%
%ADD22R,0.02756X0.03543*%
%ADD23R,0.05906X0.05906*%
%ADD24R,0.03543X0.02756*%
%ADD25R,0.20394X0.12205*%
%ADD26R,0.01400X0.06600*%
%ADD27R,0.04331X0.06693*%
%ADD28R,0.01102X0.05787*%
%ADD29R,0.05787X0.01102*%
%ADD30R,0.15748X0.09843*%
%ADD60C,0.05906*%
%ADD61R,0.05906X0.05906*%
%ADD62C,0.06000*%
%ADD63C,0.07500*%
%ADD64C,0.14961*%
%ADD65R,0.21717X0.21717*%
%ADD66C,0.21717*%
D18*
X100000Y100000D02*
Y300000D01*
X400000D01*
Y100000D02*
Y300000D01*
X100000Y100000D02*
X400000D01*
D19*
X344713Y249500D02*
X346287D01*
X345500Y248713D02*
Y250287D01*
X330713Y249610D02*
X332287D01*
X331500Y248823D02*
Y250398D01*
X376713Y173500D02*
X378287D01*
X377500Y172713D02*
Y174287D01*
D20*
X125000Y275000D02*
X137992Y262008D01*
X112008D02*
X125000Y275000D01*
Y275000D02*
X137992Y287992D01*
X112008Y262008D02*
X137992D01*
X137992Y262008D02*
Y287992D01*
X112008Y287992D02*
X137992D01*
X112008Y262008D02*
Y287992D01*
Y287992D02*
X125000Y275000D01*
X375000Y275000D02*
X387992Y262008D01*
X362008D02*
X375000Y275000D01*
Y275000D02*
X387992Y287992D01*
X362008Y262008D02*
X387992D01*
X387992Y262008D02*
Y287992D01*
X362008Y287992D02*
X387992D01*
X362008Y262008D02*
Y287992D01*
Y287992D02*
X375000Y275000D01*
X375000Y125000D02*
X387992Y112008D01*
X362008D02*
X375000Y125000D01*
Y125000D02*
X387992Y137992D01*
X362008Y112008D02*
X387992D01*
X387992Y112008D02*
Y137992D01*
X362008Y137992D02*
X387992D01*
X362008Y112008D02*
Y137992D01*
Y137992D02*
X375000Y125000D01*
X125000Y125000D02*
X137992Y112008D01*
X112008D02*
X125000Y125000D01*
Y125000D02*
X137992Y137992D01*
X112008Y112008D02*
X137992D01*
X137992Y112008D02*
Y137992D01*
X112008Y137992D02*
X137992D01*
X112008Y112008D02*
Y137992D01*
Y137992D02*
X125000Y125000D01*
D21*
X335500Y274685D02*
D03*
Y285315D02*
D03*
X208000Y197815D02*
D03*
Y187185D02*
D03*
X144500Y201185D02*
D03*
Y211815D02*
D03*
X140000Y191315D02*
D03*
Y180685D02*
D03*
D22*
X371547Y151000D02*
D03*
X377453D02*
D03*
X337405Y232000D02*
D03*
X331500D02*
D03*
X205953Y237500D02*
D03*
X200047D02*
D03*
X213047Y212000D02*
D03*
X218953D02*
D03*
X207047Y218500D02*
D03*
X212953D02*
D03*
D23*
X345500Y256390D02*
D03*
Y242610D02*
D03*
X331500Y256500D02*
D03*
Y242721D02*
D03*
X377500Y180390D02*
D03*
Y166610D02*
D03*
X349000Y160000D02*
D03*
X383000Y218000D02*
D03*
D24*
X345500Y227047D02*
D03*
Y232953D02*
D03*
X215500Y237547D02*
D03*
Y243453D02*
D03*
X150000Y183547D02*
D03*
Y189453D02*
D03*
D25*
X177425Y207400D02*
D03*
D26*
X160791Y218500D02*
D03*
X163350D02*
D03*
X165909D02*
D03*
X168468D02*
D03*
X171027D02*
D03*
X173586D02*
D03*
X176145D02*
D03*
X178705D02*
D03*
X181264D02*
D03*
X183823D02*
D03*
X186382D02*
D03*
X188941D02*
D03*
X191500D02*
D03*
X194059D02*
D03*
Y196300D02*
D03*
X191500D02*
D03*
X188941D02*
D03*
X186382D02*
D03*
X183823D02*
D03*
X181264D02*
D03*
X178705D02*
D03*
X176145D02*
D03*
X173586D02*
D03*
X171027D02*
D03*
X168468D02*
D03*
X165909D02*
D03*
X163350D02*
D03*
X160791D02*
D03*
D27*
X217815Y227500D02*
D03*
X207185D02*
D03*
X141685Y172000D02*
D03*
X152315D02*
D03*
D28*
X302827Y220583D02*
D03*
X300858D02*
D03*
X298890Y220583D02*
D03*
X296921D02*
D03*
X294953D02*
D03*
X292984Y220583D02*
D03*
X291016D02*
D03*
X289047Y220583D02*
D03*
X287079D02*
D03*
X285110D02*
D03*
X283142Y220583D02*
D03*
X281173D02*
D03*
Y253417D02*
D03*
X283142D02*
D03*
X285110D02*
D03*
X287079D02*
D03*
X289047D02*
D03*
X291016D02*
D03*
X292984D02*
D03*
X294953Y253417D02*
D03*
X296921D02*
D03*
X298890Y253417D02*
D03*
X300858D02*
D03*
X302827D02*
D03*
D29*
X275583Y226173D02*
D03*
Y228142D02*
D03*
Y230110D02*
D03*
Y232079D02*
D03*
Y234047D02*
D03*
Y236016D02*
D03*
Y237984D02*
D03*
Y239953D02*
D03*
Y241921D02*
D03*
Y243890D02*
D03*
Y245858D02*
D03*
Y247827D02*
D03*
X308417D02*
D03*
Y245858D02*
D03*
Y243890D02*
D03*
Y241921D02*
D03*
Y239953D02*
D03*
Y237984D02*
D03*
Y236016D02*
D03*
X308417Y234047D02*
D03*
X308417Y232079D02*
D03*
Y230110D02*
D03*
Y228142D02*
D03*
Y226173D02*
D03*
D30*
X222252Y176500D02*
D03*
X253748D02*
D03*
D60*
X222000Y118000D02*
D03*
X212000D02*
D03*
X202000D02*
D03*
X192000D02*
D03*
X182000D02*
D03*
X294500Y283500D02*
D03*
X304500D02*
D03*
X314500D02*
D03*
X236000Y284500D02*
D03*
Y274500D02*
D03*
X226000Y284500D02*
D03*
Y274500D02*
D03*
X216000Y284500D02*
D03*
X349000Y170000D02*
D03*
Y180000D02*
D03*
Y190000D02*
D03*
X373000Y238000D02*
D03*
X383000D02*
D03*
X373000Y228000D02*
D03*
X383000D02*
D03*
X373000Y218000D02*
D03*
D61*
X172000Y118000D02*
D03*
X284500Y283500D02*
D03*
X216000Y274500D02*
D03*
D62*
X232000Y227000D02*
D03*
X225500Y238500D02*
D03*
D63*
X177425Y207400D02*
D03*
D64*
X125000Y275000D02*
D03*
X375000D02*
D03*
Y125000D02*
D03*
X125000D02*
D03*
D65*
X310173Y124500D02*
D03*
D66*
X281827D02*
D03*
M02*
