G04*
G04 #@! TF.GenerationSoftware,Altium Limited,Altium Designer,19.1.5 (86)*
G04*
G04 Layer_Color=16711935*
%FSLAX25Y25*%
%MOIN*%
G70*
G01*
G75*
%ADD18C,0.04724*%
%ADD19C,0.00394*%
%ADD20C,0.00098*%
%ADD80C,0.04724*%
D18*
X100000Y100000D02*
Y300000D01*
X400000D01*
Y100000D02*
Y300000D01*
X100000Y100000D02*
X400000D01*
D19*
X344713Y249500D02*
X346287D01*
X345500Y248713D02*
Y250287D01*
X330713Y249610D02*
X332287D01*
X331500Y248823D02*
Y250398D01*
X376713Y173500D02*
X378287D01*
X377500Y172713D02*
Y174287D01*
D20*
X125000Y275000D02*
X137992Y262008D01*
X112008D02*
X125000Y275000D01*
Y275000D02*
X137992Y287992D01*
X112008Y262008D02*
X137992D01*
X137992Y262008D02*
Y287992D01*
X112008Y287992D02*
X137992D01*
X112008Y262008D02*
Y287992D01*
Y287992D02*
X125000Y275000D01*
X375000Y275000D02*
X387992Y262008D01*
X362008D02*
X375000Y275000D01*
Y275000D02*
X387992Y287992D01*
X362008Y262008D02*
X387992D01*
X387992Y262008D02*
Y287992D01*
X362008Y287992D02*
X387992D01*
X362008Y262008D02*
Y287992D01*
Y287992D02*
X375000Y275000D01*
X375000Y125000D02*
X387992Y112008D01*
X362008D02*
X375000Y125000D01*
Y125000D02*
X387992Y137992D01*
X362008Y112008D02*
X387992D01*
X387992Y112008D02*
Y137992D01*
X362008Y137992D02*
X387992D01*
X362008Y112008D02*
Y137992D01*
Y137992D02*
X375000Y125000D01*
X125000Y125000D02*
X137992Y112008D01*
X112008D02*
X125000Y125000D01*
Y125000D02*
X137992Y137992D01*
X112008Y112008D02*
X137992D01*
X137992Y112008D02*
Y137992D01*
X112008Y137992D02*
X137992D01*
X112008Y112008D02*
Y137992D01*
Y137992D02*
X125000Y125000D01*
D80*
X134843Y275000D02*
G03*
X134843Y275000I-9843J0D01*
G01*
X384842D02*
G03*
X384842Y275000I-9843J0D01*
G01*
Y125000D02*
G03*
X384842Y125000I-9843J0D01*
G01*
X134843D02*
G03*
X134843Y125000I-9843J0D01*
G01*
M02*
