G04*
G04 #@! TF.GenerationSoftware,Altium Limited,Altium Designer,19.1.5 (86)*
G04*
G04 Layer_Color=255*
%FSLAX25Y25*%
%MOIN*%
G70*
G01*
G75*
%ADD18C,0.04724*%
%ADD19C,0.00394*%
%ADD20C,0.00098*%
%ADD21R,0.06693X0.04331*%
%ADD23R,0.05906X0.05906*%
%ADD27R,0.04331X0.06693*%
%ADD60C,0.05906*%
%ADD61R,0.05906X0.05906*%
%ADD62C,0.06000*%
%ADD63C,0.07500*%
%ADD64C,0.14961*%
%ADD65R,0.21717X0.21717*%
%ADD66C,0.21717*%
%ADD69R,0.13583X0.05709*%
%ADD70R,0.06300X0.03600*%
D18*
X100000Y100000D02*
Y300000D01*
X400000D01*
Y100000D02*
Y300000D01*
X100000Y100000D02*
X400000D01*
D19*
X344713Y249500D02*
X346287D01*
X345500Y248713D02*
Y250287D01*
X330713Y249610D02*
X332287D01*
X331500Y248823D02*
Y250398D01*
X376713Y173500D02*
X378287D01*
X377500Y172713D02*
Y174287D01*
D20*
X125000Y275000D02*
X137992Y262008D01*
X112008D02*
X125000Y275000D01*
Y275000D02*
X137992Y287992D01*
X112008Y262008D02*
X137992D01*
X137992Y262008D02*
Y287992D01*
X112008Y287992D02*
X137992D01*
X112008Y262008D02*
Y287992D01*
Y287992D02*
X125000Y275000D01*
X375000Y275000D02*
X387992Y262008D01*
X362008D02*
X375000Y275000D01*
Y275000D02*
X387992Y287992D01*
X362008Y262008D02*
X387992D01*
X387992Y262008D02*
Y287992D01*
X362008Y287992D02*
X387992D01*
X362008Y262008D02*
Y287992D01*
Y287992D02*
X375000Y275000D01*
X375000Y125000D02*
X387992Y112008D01*
X362008D02*
X375000Y125000D01*
Y125000D02*
X387992Y137992D01*
X362008Y112008D02*
X387992D01*
X387992Y112008D02*
Y137992D01*
X362008Y137992D02*
X387992D01*
X362008Y112008D02*
Y137992D01*
Y137992D02*
X375000Y125000D01*
X125000Y125000D02*
X137992Y112008D01*
X112008D02*
X125000Y125000D01*
Y125000D02*
X137992Y137992D01*
X112008Y112008D02*
X137992D01*
X137992Y112008D02*
Y137992D01*
X112008Y137992D02*
X137992D01*
X112008Y112008D02*
Y137992D01*
Y137992D02*
X125000Y125000D01*
D21*
X301500Y157185D02*
D03*
Y167815D02*
D03*
D23*
X349000Y160000D02*
D03*
X383000Y218000D02*
D03*
D27*
X271185Y152500D02*
D03*
X281815D02*
D03*
D60*
X222000Y118000D02*
D03*
X212000D02*
D03*
X202000D02*
D03*
X192000D02*
D03*
X182000D02*
D03*
X294500Y283500D02*
D03*
X304500D02*
D03*
X314500D02*
D03*
X236000Y284500D02*
D03*
Y274500D02*
D03*
X226000Y284500D02*
D03*
Y274500D02*
D03*
X216000Y284500D02*
D03*
X349000Y170000D02*
D03*
Y180000D02*
D03*
Y190000D02*
D03*
X373000Y238000D02*
D03*
X383000D02*
D03*
X373000Y228000D02*
D03*
X383000D02*
D03*
X373000Y218000D02*
D03*
D61*
X172000Y118000D02*
D03*
X284500Y283500D02*
D03*
X216000Y274500D02*
D03*
D62*
X232000Y227000D02*
D03*
X225500Y238500D02*
D03*
D63*
X177425Y207400D02*
D03*
D64*
X125000Y275000D02*
D03*
X375000D02*
D03*
Y125000D02*
D03*
X125000D02*
D03*
D65*
X310173Y124500D02*
D03*
D66*
X281827D02*
D03*
D69*
X157500Y136795D02*
D03*
Y161205D02*
D03*
X177000Y136795D02*
D03*
Y161205D02*
D03*
X196500Y136795D02*
D03*
Y161205D02*
D03*
D70*
X285600Y185555D02*
D03*
Y176500D02*
D03*
Y167445D02*
D03*
M02*
