G04*
G04 #@! TF.GenerationSoftware,Altium Limited,Altium Designer,19.1.5 (86)*
G04*
G04 Layer_Color=8388736*
%FSLAX25Y25*%
%MOIN*%
G70*
G01*
G75*
%ADD78C,0.00098*%
D78*
X125000Y275000D02*
X137992Y262008D01*
X112008D02*
X125000Y275000D01*
Y275000D02*
X137992Y287992D01*
X112008Y262008D02*
X137992D01*
X137992Y262008D02*
Y287992D01*
X112008Y287992D02*
X137992D01*
X112008Y262008D02*
Y287992D01*
Y287992D02*
X125000Y275000D01*
X375000Y275000D02*
X387992Y262008D01*
X362008D02*
X375000Y275000D01*
Y275000D02*
X387992Y287992D01*
X362008Y262008D02*
X387992D01*
X387992Y262008D02*
Y287992D01*
X362008Y287992D02*
X387992D01*
X362008Y262008D02*
Y287992D01*
Y287992D02*
X375000Y275000D01*
X375000Y125000D02*
X387992Y112008D01*
X362008D02*
X375000Y125000D01*
Y125000D02*
X387992Y137992D01*
X362008Y112008D02*
X387992D01*
X387992Y112008D02*
Y137992D01*
X362008Y137992D02*
X387992D01*
X362008Y112008D02*
Y137992D01*
Y137992D02*
X375000Y125000D01*
X125000Y125000D02*
X137992Y112008D01*
X112008D02*
X125000Y125000D01*
Y125000D02*
X137992Y137992D01*
X112008Y112008D02*
X137992D01*
X137992Y112008D02*
Y137992D01*
X112008Y137992D02*
X137992D01*
X112008Y112008D02*
Y137992D01*
Y137992D02*
X125000Y125000D01*
M02*
