M48
;Layer_Color=9474304
;FILE_FORMAT=2:5
INCH,LZ
;TYPE=PLATED
T1F00S00C0.01181
T2F00S00C0.02800
T3F00S00C0.03000
T4F00S00C0.03543
T5F00S00C0.06250
T6F00S00C0.13386
T7F00S00C0.17717
%
T01
X0118876Y0118876
X0125Y0116339
X0131124Y0118876
X0133661Y0125
X0131124Y0131124
X0125Y0133661
X0118876Y0131124
X0116339Y0125
X0366339
X0368876Y0118876
X0375Y0116339
X0381124Y0118876
X0383661Y0125
X0381124Y0131124
X0375Y0133661
X0368876Y0131124
Y0268876
X0375Y0266339
X0381124Y0268876
X0383661Y0275
X0381124Y0281124
X0375Y0283661
X0368876Y0281124
X0366339Y0275
X0133661
X0131124Y0281124
X0125Y0283661
X0118876Y0281124
X0116339Y0275
X0118876Y0268876
X0125Y0266339
X0131124Y0268876
T02
X0363Y0151
X03195Y019
X03145Y0201
X0318Y02255
X03375Y0226
X03315Y0265
X0345
X03435Y02855
X0308Y0262
X02905Y0268
X02675Y02485
X02595Y02505
X02585Y0243
X024575Y0242
X0243Y02525
X02495Y021
X0256
Y02035
X02495
X0217Y02025
X02Y01965
X01995Y0186
X0193
X0186Y01765
X01885Y0169
X01735
X01675Y01765
X01665Y0186
X01605Y01835
X01825Y02445
X0224Y0219
X0277Y02145
X02835Y02105
X029Y0205
X0298Y0183
Y01765
X03045
X0135Y0172
X0155Y0229
T03
X0232Y0227
X02255Y02385
T04
X0172Y0118
X0182
X0192
X0202
X0212
X0222
X0349Y016
Y017
Y018
Y019
X0373Y0218
Y0228
Y0238
X0383
Y0228
Y0218
X03145Y02835
X03045
X02945
X02845
X0236Y02845
Y02745
X0226
Y02845
X0216
Y02745
T05
X0177425Y02074
T06
X0125Y0125
X0375
Y0275
X0125
T07
X0281827Y01245
X0310173
M30
