G04*
G04 #@! TF.GenerationSoftware,Altium Limited,Altium Designer,19.1.5 (86)*
G04*
G04 Layer_Color=16711935*
%FSLAX25Y25*%
%MOIN*%
G70*
G01*
G75*
%ADD29R,0.07493X0.05131*%
%ADD31R,0.06706X0.06706*%
%ADD33R,0.05131X0.07493*%
%ADD37C,0.06706*%
%ADD38R,0.06706X0.06706*%
%ADD39C,0.06800*%
%ADD40C,0.08300*%
%ADD41C,0.15261*%
%ADD42R,0.22517X0.22517*%
%ADD43C,0.22517*%
%ADD44C,0.05800*%
%ADD45C,0.03162*%
%ADD67R,0.06300X0.03600*%
%ADD75R,0.23622X0.23622*%
%ADD76R,0.14383X0.06509*%
G36*
X264950Y170100D02*
X255850D01*
Y182900D01*
X264950D01*
Y170100D01*
D02*
G37*
D29*
X301500Y157185D02*
D03*
Y167815D02*
D03*
D31*
X349000Y160000D02*
D03*
X383000Y218000D02*
D03*
D33*
X271185Y152500D02*
D03*
X281815D02*
D03*
D37*
X222000Y118000D02*
D03*
X212000D02*
D03*
X202000D02*
D03*
X192000D02*
D03*
X182000D02*
D03*
X294500Y283500D02*
D03*
X304500D02*
D03*
X314500D02*
D03*
X236000Y284500D02*
D03*
Y274500D02*
D03*
X226000Y284500D02*
D03*
Y274500D02*
D03*
X216000Y284500D02*
D03*
X349000Y170000D02*
D03*
Y180000D02*
D03*
Y190000D02*
D03*
X373000Y238000D02*
D03*
X383000D02*
D03*
X373000Y228000D02*
D03*
X383000D02*
D03*
X373000Y218000D02*
D03*
D38*
X172000Y118000D02*
D03*
X284500Y283500D02*
D03*
X216000Y274500D02*
D03*
D39*
X232000Y227000D02*
D03*
X225500Y238500D02*
D03*
D40*
X177425Y207400D02*
D03*
D41*
X125000Y275000D02*
D03*
X375000D02*
D03*
Y125000D02*
D03*
X125000D02*
D03*
D42*
X310173Y124500D02*
D03*
D43*
X281827D02*
D03*
D44*
X343500Y285500D02*
D03*
X298000Y183000D02*
D03*
X314500Y201000D02*
D03*
X283500Y210500D02*
D03*
X290000Y205000D02*
D03*
X259500Y250500D02*
D03*
X258500Y243000D02*
D03*
X267500Y248500D02*
D03*
X243000Y252500D02*
D03*
X363000Y151000D02*
D03*
X345000Y265000D02*
D03*
X331500D02*
D03*
X337500Y226000D02*
D03*
X135000Y172000D02*
D03*
X224000Y219000D02*
D03*
X277000Y214500D02*
D03*
X308000Y262000D02*
D03*
X318000Y225500D02*
D03*
X319500Y190000D02*
D03*
X290500Y268000D02*
D03*
X182500Y244500D02*
D03*
X245750Y242000D02*
D03*
X155000Y229000D02*
D03*
X304500Y176500D02*
D03*
X298000D02*
D03*
X173500Y169000D02*
D03*
X188500D02*
D03*
X167500Y176500D02*
D03*
X186000D02*
D03*
X160500Y183500D02*
D03*
X166500Y186000D02*
D03*
X193000D02*
D03*
X199500D02*
D03*
X256000Y210000D02*
D03*
X249500D02*
D03*
Y203500D02*
D03*
X256000D02*
D03*
X217000Y202500D02*
D03*
X200000Y196500D02*
D03*
D45*
X131124Y281124D02*
D03*
X133661Y275000D02*
D03*
X131124Y268876D02*
D03*
X125000Y266339D02*
D03*
X118876Y268876D02*
D03*
X116339Y275000D02*
D03*
X118876Y281124D02*
D03*
X125000Y283661D02*
D03*
X381124Y281124D02*
D03*
X383661Y275000D02*
D03*
X381124Y268876D02*
D03*
X375000Y266339D02*
D03*
X368876Y268876D02*
D03*
X366339Y275000D02*
D03*
X368876Y281124D02*
D03*
X375000Y283661D02*
D03*
X381124Y131124D02*
D03*
X383661Y125000D02*
D03*
X381124Y118876D02*
D03*
X375000Y116339D02*
D03*
X368876Y118876D02*
D03*
X366339Y125000D02*
D03*
X368876Y131124D02*
D03*
X375000Y133661D02*
D03*
X131124Y131124D02*
D03*
X133661Y125000D02*
D03*
X131124Y118876D02*
D03*
X125000Y116339D02*
D03*
X118876Y118876D02*
D03*
X116339Y125000D02*
D03*
X118876Y131124D02*
D03*
X125000Y133661D02*
D03*
D67*
X285600Y185555D02*
D03*
Y176500D02*
D03*
Y167445D02*
D03*
D75*
X125000Y274997D02*
D03*
X375000D02*
D03*
Y124997D02*
D03*
X125000D02*
D03*
D76*
X157500Y136795D02*
D03*
Y161205D02*
D03*
X177000Y136795D02*
D03*
Y161205D02*
D03*
X196500Y136795D02*
D03*
Y161205D02*
D03*
M02*
