G04*
G04 #@! TF.GenerationSoftware,Altium Limited,Altium Designer,19.1.5 (86)*
G04*
G04 Layer_Physical_Order=2*
G04 Layer_Color=16711680*
%FSLAX25Y25*%
%MOIN*%
G70*
G01*
G75*
%ADD13C,0.01000*%
%ADD18R,0.06693X0.04331*%
%ADD20R,0.05906X0.05906*%
%ADD24R,0.04331X0.06693*%
%ADD56R,0.22047X0.22047*%
%ADD57C,0.05906*%
%ADD58R,0.05906X0.05906*%
%ADD59C,0.06000*%
%ADD60C,0.07500*%
%ADD61C,0.14961*%
%ADD62R,0.21717X0.21717*%
%ADD63C,0.21717*%
%ADD64C,0.05000*%
%ADD65C,0.02362*%
%ADD66R,0.13583X0.05709*%
%ADD67R,0.06300X0.03600*%
%ADD68C,0.02500*%
%ADD69C,0.02000*%
%ADD70R,0.05500X0.07000*%
%ADD71R,0.12000X0.14000*%
%ADD72R,0.52000X0.13500*%
%ADD73R,0.24500X0.05500*%
%ADD74R,0.48000X0.10000*%
G36*
X397500Y102000D02*
X102500D01*
Y297500D01*
X397500D01*
Y102000D01*
D02*
G37*
%LPC*%
G36*
X344000Y288964D02*
Y286000D01*
X346964D01*
X346910Y286414D01*
X346557Y287265D01*
X345996Y287996D01*
X345265Y288557D01*
X344414Y288910D01*
X344000Y288964D01*
D02*
G37*
G36*
X343000D02*
X342586Y288910D01*
X341735Y288557D01*
X341004Y287996D01*
X340443Y287265D01*
X340090Y286414D01*
X340036Y286000D01*
X343000D01*
Y288964D01*
D02*
G37*
G36*
X236500Y288421D02*
Y285000D01*
X239921D01*
X239851Y285532D01*
X239453Y286493D01*
X238819Y287319D01*
X237993Y287953D01*
X237032Y288351D01*
X236500Y288421D01*
D02*
G37*
G36*
X235500D02*
X234968Y288351D01*
X234007Y287953D01*
X233181Y287319D01*
X232547Y286493D01*
X232149Y285532D01*
X232079Y285000D01*
X235500D01*
Y288421D01*
D02*
G37*
G36*
X295000Y287421D02*
Y284000D01*
X298421D01*
X298351Y284532D01*
X297953Y285493D01*
X297319Y286319D01*
X296493Y286953D01*
X295532Y287351D01*
X295000Y287421D01*
D02*
G37*
G36*
X294000D02*
X293468Y287351D01*
X292507Y286953D01*
X291681Y286319D01*
X291047Y285493D01*
X290649Y284532D01*
X290579Y284000D01*
X294000D01*
Y287421D01*
D02*
G37*
G36*
X346964Y285000D02*
X344000D01*
Y282036D01*
X344414Y282090D01*
X345265Y282443D01*
X345996Y283004D01*
X346557Y283735D01*
X346910Y284586D01*
X346964Y285000D01*
D02*
G37*
G36*
X343000D02*
X340036D01*
X340090Y284586D01*
X340443Y283735D01*
X341004Y283004D01*
X341735Y282443D01*
X342586Y282090D01*
X343000Y282036D01*
Y285000D01*
D02*
G37*
G36*
X226000Y288285D02*
X225020Y288156D01*
X224107Y287778D01*
X223323Y287176D01*
X222722Y286393D01*
X222344Y285480D01*
X222215Y284500D01*
X222344Y283520D01*
X222722Y282607D01*
X223323Y281823D01*
X224107Y281222D01*
X225020Y280844D01*
X226000Y280715D01*
X226980Y280844D01*
X227893Y281222D01*
X228677Y281823D01*
X229278Y282607D01*
X229656Y283520D01*
X229785Y284500D01*
X229656Y285480D01*
X229278Y286393D01*
X228677Y287176D01*
X227893Y287778D01*
X226980Y288156D01*
X226000Y288285D01*
D02*
G37*
G36*
X216000D02*
X215020Y288156D01*
X214107Y287778D01*
X213323Y287176D01*
X212722Y286393D01*
X212344Y285480D01*
X212215Y284500D01*
X212344Y283520D01*
X212722Y282607D01*
X213323Y281823D01*
X214107Y281222D01*
X215020Y280844D01*
X216000Y280715D01*
X216980Y280844D01*
X217893Y281222D01*
X218676Y281823D01*
X219278Y282607D01*
X219656Y283520D01*
X219785Y284500D01*
X219656Y285480D01*
X219278Y286393D01*
X218676Y287176D01*
X217893Y287778D01*
X216980Y288156D01*
X216000Y288285D01*
D02*
G37*
G36*
X239921Y284000D02*
X236500D01*
Y280579D01*
X237032Y280649D01*
X237993Y281047D01*
X238819Y281681D01*
X239453Y282507D01*
X239851Y283468D01*
X239921Y284000D01*
D02*
G37*
G36*
X235500D02*
X232079D01*
X232149Y283468D01*
X232547Y282507D01*
X233181Y281681D01*
X234007Y281047D01*
X234968Y280649D01*
X235500Y280579D01*
Y284000D01*
D02*
G37*
G36*
X288253Y287253D02*
X280747D01*
Y279747D01*
X288253D01*
Y287253D01*
D02*
G37*
G36*
X314500Y287285D02*
X313520Y287156D01*
X312607Y286778D01*
X311824Y286176D01*
X311222Y285393D01*
X310844Y284480D01*
X310715Y283500D01*
X310844Y282520D01*
X311222Y281607D01*
X311824Y280823D01*
X312607Y280222D01*
X313520Y279844D01*
X314500Y279715D01*
X315480Y279844D01*
X316393Y280222D01*
X317177Y280823D01*
X317778Y281607D01*
X318156Y282520D01*
X318285Y283500D01*
X318156Y284480D01*
X317778Y285393D01*
X317177Y286176D01*
X316393Y286778D01*
X315480Y287156D01*
X314500Y287285D01*
D02*
G37*
G36*
X304500D02*
X303520Y287156D01*
X302607Y286778D01*
X301823Y286176D01*
X301222Y285393D01*
X300844Y284480D01*
X300715Y283500D01*
X300844Y282520D01*
X301222Y281607D01*
X301823Y280823D01*
X302607Y280222D01*
X303520Y279844D01*
X304500Y279715D01*
X305480Y279844D01*
X306393Y280222D01*
X307176Y280823D01*
X307778Y281607D01*
X308156Y282520D01*
X308285Y283500D01*
X308156Y284480D01*
X307778Y285393D01*
X307176Y286176D01*
X306393Y286778D01*
X305480Y287156D01*
X304500Y287285D01*
D02*
G37*
G36*
X298421Y283000D02*
X295000D01*
Y279579D01*
X295532Y279649D01*
X296493Y280047D01*
X297319Y280681D01*
X297953Y281507D01*
X298351Y282468D01*
X298421Y283000D01*
D02*
G37*
G36*
X294000D02*
X290579D01*
X290649Y282468D01*
X291047Y281507D01*
X291681Y280681D01*
X292507Y280047D01*
X293468Y279649D01*
X294000Y279579D01*
Y283000D01*
D02*
G37*
G36*
X236000Y278285D02*
X235020Y278156D01*
X234107Y277778D01*
X233324Y277176D01*
X232722Y276393D01*
X232344Y275480D01*
X232215Y274500D01*
X232344Y273520D01*
X232722Y272607D01*
X233324Y271824D01*
X234107Y271222D01*
X235020Y270844D01*
X236000Y270715D01*
X236980Y270844D01*
X237893Y271222D01*
X238677Y271824D01*
X239278Y272607D01*
X239656Y273520D01*
X239785Y274500D01*
X239656Y275480D01*
X239278Y276393D01*
X238677Y277176D01*
X237893Y277778D01*
X236980Y278156D01*
X236000Y278285D01*
D02*
G37*
G36*
X226000D02*
X225020Y278156D01*
X224107Y277778D01*
X223323Y277176D01*
X222722Y276393D01*
X222344Y275480D01*
X222215Y274500D01*
X222344Y273520D01*
X222722Y272607D01*
X223323Y271824D01*
X224107Y271222D01*
X225020Y270844D01*
X226000Y270715D01*
X226980Y270844D01*
X227893Y271222D01*
X228677Y271824D01*
X229278Y272607D01*
X229656Y273520D01*
X229785Y274500D01*
X229656Y275480D01*
X229278Y276393D01*
X228677Y277176D01*
X227893Y277778D01*
X226980Y278156D01*
X226000Y278285D01*
D02*
G37*
G36*
X290500Y271328D02*
X289638Y271215D01*
X288836Y270883D01*
X288146Y270354D01*
X287617Y269664D01*
X287477Y269325D01*
X258500D01*
X257993Y269225D01*
X257563Y268937D01*
X244200Y255575D01*
X243862Y255715D01*
X243000Y255828D01*
X242139Y255715D01*
X241336Y255382D01*
X240646Y254854D01*
X240118Y254164D01*
X239785Y253362D01*
X239671Y252500D01*
X239785Y251639D01*
X240118Y250836D01*
X240646Y250146D01*
X241336Y249618D01*
X242139Y249285D01*
X243000Y249171D01*
X243862Y249285D01*
X244664Y249618D01*
X245354Y250146D01*
X245883Y250836D01*
X246215Y251639D01*
X246328Y252500D01*
X246215Y253362D01*
X246075Y253700D01*
X259049Y266674D01*
X287477D01*
X287617Y266336D01*
X288146Y265646D01*
X288836Y265118D01*
X289638Y264785D01*
X290500Y264671D01*
X291361Y264785D01*
X292164Y265118D01*
X292854Y265646D01*
X293383Y266336D01*
X293715Y267139D01*
X293829Y268000D01*
X293715Y268862D01*
X293383Y269664D01*
X292854Y270354D01*
X292164Y270883D01*
X291361Y271215D01*
X290500Y271328D01*
D02*
G37*
G36*
X308500Y265464D02*
Y262500D01*
X311464D01*
X311410Y262914D01*
X311057Y263765D01*
X310496Y264496D01*
X309765Y265057D01*
X308914Y265410D01*
X308500Y265464D01*
D02*
G37*
G36*
X307500D02*
X307086Y265410D01*
X306235Y265057D01*
X305504Y264496D01*
X304943Y263765D01*
X304590Y262914D01*
X304536Y262500D01*
X307500D01*
Y265464D01*
D02*
G37*
G36*
X345000Y268328D02*
X344139Y268215D01*
X343336Y267882D01*
X342646Y267354D01*
X342118Y266664D01*
X341785Y265862D01*
X341671Y265000D01*
X341785Y264139D01*
X341925Y263800D01*
X322451Y244325D01*
X261523D01*
X261383Y244664D01*
X260854Y245354D01*
X260164Y245883D01*
X259362Y246215D01*
X258500Y246328D01*
X257639Y246215D01*
X256836Y245883D01*
X256146Y245354D01*
X255617Y244664D01*
X255285Y243862D01*
X255171Y243000D01*
X255285Y242139D01*
X255617Y241336D01*
X256146Y240646D01*
X256836Y240118D01*
X257639Y239785D01*
X258500Y239671D01*
X259362Y239785D01*
X260164Y240118D01*
X260854Y240646D01*
X261383Y241336D01*
X261523Y241674D01*
X323000D01*
X323507Y241775D01*
X323937Y242063D01*
X343800Y261925D01*
X344139Y261785D01*
X345000Y261671D01*
X345862Y261785D01*
X346664Y262118D01*
X347354Y262646D01*
X347883Y263336D01*
X348215Y264139D01*
X348328Y265000D01*
X348215Y265862D01*
X347883Y266664D01*
X347354Y267354D01*
X346664Y267882D01*
X345862Y268215D01*
X345000Y268328D01*
D02*
G37*
G36*
X331500D02*
X330639Y268215D01*
X329836Y267882D01*
X329146Y267354D01*
X328618Y266664D01*
X328285Y265862D01*
X328171Y265000D01*
X328285Y264139D01*
X328425Y263800D01*
X322951Y258326D01*
X309581D01*
X309482Y258825D01*
X309765Y258943D01*
X310496Y259504D01*
X311057Y260235D01*
X311410Y261086D01*
X311464Y261500D01*
X304536D01*
X304590Y261086D01*
X304943Y260235D01*
X305504Y259504D01*
X306235Y258943D01*
X306518Y258825D01*
X306419Y258326D01*
X266000D01*
X265493Y258225D01*
X265063Y257937D01*
X260700Y253575D01*
X260362Y253715D01*
X259500Y253829D01*
X258639Y253715D01*
X257836Y253382D01*
X257146Y252854D01*
X256617Y252164D01*
X256285Y251361D01*
X256171Y250500D01*
X256285Y249639D01*
X256617Y248836D01*
X257146Y248146D01*
X257836Y247618D01*
X258639Y247285D01*
X259500Y247171D01*
X260362Y247285D01*
X261164Y247618D01*
X261854Y248146D01*
X262383Y248836D01*
X262715Y249639D01*
X262828Y250500D01*
X262715Y251361D01*
X262575Y251700D01*
X266549Y255675D01*
X323500D01*
X324007Y255775D01*
X324437Y256063D01*
X330300Y261925D01*
X330639Y261785D01*
X331500Y261671D01*
X332362Y261785D01*
X333164Y262118D01*
X333854Y262646D01*
X334383Y263336D01*
X334715Y264139D01*
X334828Y265000D01*
X334715Y265862D01*
X334383Y266664D01*
X333854Y267354D01*
X333164Y267882D01*
X332362Y268215D01*
X331500Y268328D01*
D02*
G37*
G36*
X387992Y288811D02*
X362008D01*
X361696Y288749D01*
X361431Y288572D01*
X361254Y288307D01*
X361192Y287995D01*
Y262011D01*
X361254Y261699D01*
X361431Y261434D01*
X361696Y261257D01*
X362008Y261195D01*
X387992D01*
X388304Y261257D01*
X388569Y261434D01*
X388746Y261699D01*
X388808Y262011D01*
Y287995D01*
X388746Y288307D01*
X388569Y288572D01*
X388304Y288749D01*
X387992Y288811D01*
D02*
G37*
G36*
X137992D02*
X112008D01*
X111696Y288749D01*
X111431Y288572D01*
X111254Y288307D01*
X111192Y287995D01*
Y262011D01*
X111254Y261699D01*
X111431Y261434D01*
X111696Y261257D01*
X112008Y261195D01*
X137992D01*
X138304Y261257D01*
X138569Y261434D01*
X138746Y261699D01*
X138808Y262011D01*
Y287995D01*
X138746Y288307D01*
X138569Y288572D01*
X138304Y288749D01*
X137992Y288811D01*
D02*
G37*
G36*
X268000Y251964D02*
Y249000D01*
X270964D01*
X270910Y249414D01*
X270557Y250265D01*
X269996Y250996D01*
X269265Y251557D01*
X268414Y251910D01*
X268000Y251964D01*
D02*
G37*
G36*
X267000D02*
X266586Y251910D01*
X265735Y251557D01*
X265004Y250996D01*
X264443Y250265D01*
X264090Y249414D01*
X264036Y249000D01*
X267000D01*
Y251964D01*
D02*
G37*
G36*
X270964Y248000D02*
X268000D01*
Y245036D01*
X268414Y245090D01*
X269265Y245443D01*
X269996Y246004D01*
X270557Y246735D01*
X270910Y247586D01*
X270964Y248000D01*
D02*
G37*
G36*
X267000D02*
X264036D01*
X264090Y247586D01*
X264443Y246735D01*
X265004Y246004D01*
X265735Y245443D01*
X266586Y245090D01*
X267000Y245036D01*
Y248000D01*
D02*
G37*
G36*
X219753Y278253D02*
X212247D01*
Y270747D01*
X214725D01*
X214775Y270493D01*
X215063Y270063D01*
X242503Y242622D01*
X242422Y242000D01*
X242535Y241139D01*
X242867Y240336D01*
X243396Y239646D01*
X244086Y239118D01*
X244888Y238785D01*
X245750Y238671D01*
X246611Y238785D01*
X247414Y239118D01*
X248104Y239646D01*
X248633Y240336D01*
X248965Y241139D01*
X249078Y242000D01*
X248965Y242862D01*
X248633Y243664D01*
X248104Y244354D01*
X247414Y244882D01*
X246611Y245215D01*
X245750Y245328D01*
X244888Y245215D01*
X244086Y244882D01*
X244033Y244842D01*
X218589Y270285D01*
X218780Y270747D01*
X219753D01*
Y278253D01*
D02*
G37*
G36*
X377500Y244826D02*
X369500D01*
X368993Y244725D01*
X368563Y244437D01*
X339951Y215826D01*
X280023D01*
X279883Y216164D01*
X279354Y216854D01*
X278664Y217383D01*
X277861Y217715D01*
X277000Y217828D01*
X276138Y217715D01*
X275336Y217383D01*
X274646Y216854D01*
X274117Y216164D01*
X273785Y215361D01*
X273672Y214500D01*
X273785Y213638D01*
X274117Y212836D01*
X274646Y212146D01*
X275336Y211617D01*
X276138Y211285D01*
X277000Y211172D01*
X277861Y211285D01*
X278664Y211617D01*
X279354Y212146D01*
X279883Y212836D01*
X280023Y213175D01*
X280778D01*
X281009Y212674D01*
X280617Y212164D01*
X280285Y211362D01*
X280171Y210500D01*
X280285Y209639D01*
X280617Y208836D01*
X281146Y208146D01*
X281836Y207617D01*
X282639Y207285D01*
X283500Y207172D01*
X284362Y207285D01*
X285164Y207617D01*
X285854Y208146D01*
X286383Y208836D01*
X286523Y209174D01*
X346500D01*
X347007Y209275D01*
X347437Y209563D01*
X372195Y234321D01*
X373000Y234215D01*
X373980Y234344D01*
X374893Y234722D01*
X375676Y235324D01*
X376278Y236107D01*
X376656Y237020D01*
X376785Y238000D01*
X376656Y238980D01*
X376278Y239893D01*
X375676Y240676D01*
X374893Y241278D01*
X373980Y241656D01*
X373840Y241674D01*
X373873Y242175D01*
X376951D01*
X379579Y239547D01*
X379344Y238980D01*
X379215Y238000D01*
X379344Y237020D01*
X379722Y236107D01*
X380324Y235324D01*
X381107Y234722D01*
X382020Y234344D01*
X383000Y234215D01*
X383980Y234344D01*
X384893Y234722D01*
X385677Y235324D01*
X386278Y236107D01*
X386656Y237020D01*
X386785Y238000D01*
X386656Y238980D01*
X386278Y239893D01*
X385677Y240676D01*
X384893Y241278D01*
X383980Y241656D01*
X383000Y241785D01*
X382020Y241656D01*
X381453Y241421D01*
X378437Y244437D01*
X378007Y244725D01*
X377500Y244826D01*
D02*
G37*
G36*
X155500Y232464D02*
Y229500D01*
X158464D01*
X158410Y229914D01*
X158057Y230765D01*
X157496Y231496D01*
X156765Y232057D01*
X155914Y232410D01*
X155500Y232464D01*
D02*
G37*
G36*
X154500D02*
X154086Y232410D01*
X153235Y232057D01*
X152504Y231496D01*
X151943Y230765D01*
X151590Y229914D01*
X151536Y229500D01*
X154500D01*
Y232464D01*
D02*
G37*
G36*
X338000Y229464D02*
Y226500D01*
X340964D01*
X340910Y226914D01*
X340557Y227765D01*
X339996Y228496D01*
X339265Y229057D01*
X338414Y229410D01*
X338000Y229464D01*
D02*
G37*
G36*
X337000D02*
X336586Y229410D01*
X335735Y229057D01*
X335004Y228496D01*
X334443Y227765D01*
X334090Y226914D01*
X334036Y226500D01*
X337000D01*
Y229464D01*
D02*
G37*
G36*
X158464Y228500D02*
X155500D01*
Y225536D01*
X155914Y225590D01*
X156765Y225943D01*
X157496Y226504D01*
X158057Y227235D01*
X158410Y228086D01*
X158464Y228500D01*
D02*
G37*
G36*
X154500D02*
X151536D01*
X151590Y228086D01*
X151943Y227235D01*
X152504Y226504D01*
X153235Y225943D01*
X154086Y225590D01*
X154500Y225536D01*
Y228500D01*
D02*
G37*
G36*
X383000Y231785D02*
X382020Y231656D01*
X381107Y231278D01*
X380324Y230677D01*
X379722Y229893D01*
X379344Y228980D01*
X379215Y228000D01*
X379344Y227020D01*
X379722Y226107D01*
X380324Y225324D01*
X381107Y224722D01*
X382020Y224344D01*
X383000Y224215D01*
X383980Y224344D01*
X384893Y224722D01*
X385677Y225324D01*
X386278Y226107D01*
X386656Y227020D01*
X386785Y228000D01*
X386656Y228980D01*
X386278Y229893D01*
X385677Y230677D01*
X384893Y231278D01*
X383980Y231656D01*
X383000Y231785D01*
D02*
G37*
G36*
X373000D02*
X372020Y231656D01*
X371107Y231278D01*
X370323Y230677D01*
X369722Y229893D01*
X369344Y228980D01*
X369215Y228000D01*
X369344Y227020D01*
X369722Y226107D01*
X370323Y225324D01*
X371107Y224722D01*
X372020Y224344D01*
X373000Y224215D01*
X373980Y224344D01*
X374893Y224722D01*
X375676Y225324D01*
X376278Y226107D01*
X376656Y227020D01*
X376785Y228000D01*
X376656Y228980D01*
X376278Y229893D01*
X375676Y230677D01*
X374893Y231278D01*
X373980Y231656D01*
X373000Y231785D01*
D02*
G37*
G36*
X225500Y242333D02*
X224508Y242202D01*
X223584Y241819D01*
X222790Y241210D01*
X222181Y240416D01*
X221798Y239492D01*
X221667Y238500D01*
X221798Y237508D01*
X222181Y236584D01*
X222790Y235790D01*
X223584Y235181D01*
X224508Y234798D01*
X225500Y234667D01*
X226275Y234769D01*
X229910Y231134D01*
Y230186D01*
X229290Y229710D01*
X228681Y228916D01*
X228298Y227992D01*
X228167Y227000D01*
X228298Y226008D01*
X228681Y225084D01*
X229290Y224290D01*
X230084Y223681D01*
X231008Y223298D01*
X232000Y223167D01*
X232992Y223298D01*
X233916Y223681D01*
X234710Y224290D01*
X235319Y225084D01*
X235702Y226008D01*
X235833Y227000D01*
X235702Y227992D01*
X235319Y228916D01*
X234710Y229710D01*
X234090Y230186D01*
Y232000D01*
X234090Y232000D01*
X233931Y232800D01*
X233478Y233478D01*
X229231Y237725D01*
X229333Y238500D01*
X229202Y239492D01*
X228819Y240416D01*
X228210Y241210D01*
X227416Y241819D01*
X226492Y242202D01*
X225500Y242333D01*
D02*
G37*
G36*
X340964Y225500D02*
X338000D01*
Y222536D01*
X338414Y222590D01*
X339265Y222943D01*
X339996Y223504D01*
X340557Y224235D01*
X340910Y225086D01*
X340964Y225500D01*
D02*
G37*
G36*
X337000D02*
X334036D01*
X334090Y225086D01*
X334443Y224235D01*
X335004Y223504D01*
X335735Y222943D01*
X336586Y222590D01*
X337000Y222536D01*
Y225500D01*
D02*
G37*
G36*
X182500Y247829D02*
X181639Y247715D01*
X180836Y247382D01*
X180146Y246854D01*
X179618Y246164D01*
X179285Y245361D01*
X179172Y244500D01*
X179285Y243638D01*
X179618Y242836D01*
X180146Y242146D01*
X180836Y241617D01*
X181639Y241285D01*
X182500Y241172D01*
X183361Y241285D01*
X184164Y241617D01*
X184854Y242146D01*
X185382Y242836D01*
X185523Y243175D01*
X227451D01*
X236563Y234063D01*
X236993Y233775D01*
X237500Y233675D01*
X307951D01*
X314925Y226700D01*
X314785Y226361D01*
X314671Y225500D01*
X314785Y224639D01*
X315118Y223836D01*
X315646Y223146D01*
X316336Y222618D01*
X317139Y222285D01*
X318000Y222171D01*
X318862Y222285D01*
X319664Y222618D01*
X320354Y223146D01*
X320883Y223836D01*
X321215Y224639D01*
X321328Y225500D01*
X321215Y226361D01*
X320883Y227164D01*
X320354Y227854D01*
X319664Y228382D01*
X318862Y228715D01*
X318000Y228829D01*
X317139Y228715D01*
X316800Y228575D01*
X309437Y235937D01*
X309007Y236225D01*
X308500Y236326D01*
X238049D01*
X228937Y245437D01*
X228507Y245725D01*
X228000Y245826D01*
X185523D01*
X185382Y246164D01*
X184854Y246854D01*
X184164Y247382D01*
X183361Y247715D01*
X182500Y247829D01*
D02*
G37*
G36*
X224500Y222464D02*
Y219500D01*
X227464D01*
X227410Y219914D01*
X227057Y220765D01*
X226496Y221496D01*
X225765Y222057D01*
X224914Y222410D01*
X224500Y222464D01*
D02*
G37*
G36*
X223500D02*
X223086Y222410D01*
X222235Y222057D01*
X221504Y221496D01*
X220943Y220765D01*
X220590Y219914D01*
X220536Y219500D01*
X223500D01*
Y222464D01*
D02*
G37*
G36*
X386953Y221953D02*
X383500D01*
Y218500D01*
X386953D01*
Y221953D01*
D02*
G37*
G36*
X373500Y221921D02*
Y218500D01*
X376921D01*
X376851Y219032D01*
X376453Y219993D01*
X375819Y220819D01*
X374993Y221453D01*
X374032Y221851D01*
X373500Y221921D01*
D02*
G37*
G36*
X372500D02*
X371968Y221851D01*
X371007Y221453D01*
X370181Y220819D01*
X369547Y219993D01*
X369149Y219032D01*
X369079Y218500D01*
X372500D01*
Y221921D01*
D02*
G37*
G36*
X382500Y221953D02*
X379047D01*
Y218500D01*
X382500D01*
Y221953D01*
D02*
G37*
G36*
X227464Y218500D02*
X224500D01*
Y215536D01*
X224914Y215590D01*
X225765Y215943D01*
X226496Y216504D01*
X227057Y217235D01*
X227410Y218086D01*
X227464Y218500D01*
D02*
G37*
G36*
X223500D02*
X220536D01*
X220590Y218086D01*
X220943Y217235D01*
X221504Y216504D01*
X222235Y215943D01*
X223086Y215590D01*
X223500Y215536D01*
Y218500D01*
D02*
G37*
G36*
X376921Y217500D02*
X373500D01*
Y214079D01*
X374032Y214149D01*
X374993Y214547D01*
X375819Y215181D01*
X376453Y216007D01*
X376851Y216968D01*
X376921Y217500D01*
D02*
G37*
G36*
X372500D02*
X369079D01*
X369149Y216968D01*
X369547Y216007D01*
X370181Y215181D01*
X371007Y214547D01*
X371968Y214149D01*
X372500Y214079D01*
Y217500D01*
D02*
G37*
G36*
X386953D02*
X383500D01*
Y214047D01*
X386953D01*
Y217500D01*
D02*
G37*
G36*
X382500D02*
X379047D01*
Y214047D01*
X382500D01*
Y217500D01*
D02*
G37*
G36*
X255500Y213464D02*
X255086Y213410D01*
X254235Y213057D01*
X253504Y212496D01*
X253044Y211897D01*
X252888Y211855D01*
X252612D01*
X252456Y211897D01*
X251996Y212496D01*
X251265Y213057D01*
X250414Y213410D01*
X250000Y213464D01*
Y210000D01*
X249500D01*
Y209500D01*
X246036D01*
X246090Y209086D01*
X246443Y208235D01*
X247004Y207504D01*
X247603Y207044D01*
X247645Y206888D01*
Y206612D01*
X247603Y206456D01*
X247004Y205996D01*
X246443Y205265D01*
X246090Y204414D01*
X246036Y204000D01*
X249500D01*
Y203500D01*
X250000D01*
Y200036D01*
X250414Y200090D01*
X251265Y200443D01*
X251996Y201004D01*
X252456Y201603D01*
X252612Y201645D01*
X252888D01*
X253044Y201603D01*
X253504Y201004D01*
X254235Y200443D01*
X255086Y200090D01*
X255500Y200036D01*
Y203500D01*
X256000D01*
Y204000D01*
X259464D01*
X259410Y204414D01*
X259057Y205265D01*
X258496Y205996D01*
X257897Y206456D01*
X257855Y206612D01*
Y206888D01*
X257897Y207044D01*
X258496Y207504D01*
X259057Y208235D01*
X259410Y209086D01*
X259464Y209500D01*
X256000D01*
Y210000D01*
X255500D01*
Y213464D01*
D02*
G37*
G36*
X256500D02*
Y210500D01*
X259464D01*
X259410Y210914D01*
X259057Y211765D01*
X258496Y212496D01*
X257765Y213057D01*
X256914Y213410D01*
X256500Y213464D01*
D02*
G37*
G36*
X249000D02*
X248586Y213410D01*
X247735Y213057D01*
X247004Y212496D01*
X246443Y211765D01*
X246090Y210914D01*
X246036Y210500D01*
X249000D01*
Y213464D01*
D02*
G37*
G36*
X290500Y208464D02*
Y205500D01*
X293464D01*
X293410Y205914D01*
X293057Y206765D01*
X292496Y207496D01*
X291765Y208057D01*
X290914Y208410D01*
X290500Y208464D01*
D02*
G37*
G36*
X289500D02*
X289086Y208410D01*
X288235Y208057D01*
X287504Y207496D01*
X286943Y206765D01*
X286590Y205914D01*
X286536Y205500D01*
X289500D01*
Y208464D01*
D02*
G37*
G36*
X217500Y205964D02*
Y203000D01*
X220464D01*
X220410Y203414D01*
X220057Y204265D01*
X219496Y204996D01*
X218765Y205557D01*
X217914Y205910D01*
X217500Y205964D01*
D02*
G37*
G36*
X216500D02*
X216086Y205910D01*
X215235Y205557D01*
X214504Y204996D01*
X213943Y204265D01*
X213590Y203414D01*
X213536Y203000D01*
X216500D01*
Y205964D01*
D02*
G37*
G36*
X293464Y204500D02*
X290500D01*
Y201536D01*
X290914Y201590D01*
X291765Y201943D01*
X292496Y202504D01*
X293057Y203235D01*
X293410Y204086D01*
X293464Y204500D01*
D02*
G37*
G36*
X289500D02*
X286536D01*
X286590Y204086D01*
X286943Y203235D01*
X287504Y202504D01*
X288235Y201943D01*
X289086Y201590D01*
X289500Y201536D01*
Y204500D01*
D02*
G37*
G36*
X259464Y203000D02*
X256500D01*
Y200036D01*
X256914Y200090D01*
X257765Y200443D01*
X258496Y201004D01*
X259057Y201735D01*
X259410Y202586D01*
X259464Y203000D01*
D02*
G37*
G36*
X249000D02*
X246036D01*
X246090Y202586D01*
X246443Y201735D01*
X247004Y201004D01*
X247735Y200443D01*
X248586Y200090D01*
X249000Y200036D01*
Y203000D01*
D02*
G37*
G36*
X220464Y202000D02*
X217500D01*
Y199036D01*
X217914Y199090D01*
X218765Y199443D01*
X219496Y200004D01*
X220057Y200735D01*
X220410Y201586D01*
X220464Y202000D01*
D02*
G37*
G36*
X216500D02*
X213536D01*
X213590Y201586D01*
X213943Y200735D01*
X214504Y200004D01*
X215235Y199443D01*
X216086Y199090D01*
X216500Y199036D01*
Y202000D01*
D02*
G37*
G36*
X200500Y199964D02*
Y197000D01*
X203464D01*
X203410Y197414D01*
X203057Y198265D01*
X202496Y198996D01*
X201765Y199557D01*
X200914Y199910D01*
X200500Y199964D01*
D02*
G37*
G36*
X199500D02*
X199086Y199910D01*
X198235Y199557D01*
X197504Y198996D01*
X196943Y198265D01*
X196590Y197414D01*
X196536Y197000D01*
X199500D01*
Y199964D01*
D02*
G37*
G36*
X203464Y196000D02*
X200500D01*
Y193036D01*
X200914Y193090D01*
X201765Y193443D01*
X202496Y194004D01*
X203057Y194735D01*
X203410Y195586D01*
X203464Y196000D01*
D02*
G37*
G36*
X199500D02*
X196536D01*
X196590Y195586D01*
X196943Y194735D01*
X197504Y194004D01*
X198235Y193443D01*
X199086Y193090D01*
X199500Y193036D01*
Y196000D01*
D02*
G37*
G36*
X314500Y204328D02*
X313638Y204215D01*
X312836Y203883D01*
X312146Y203354D01*
X311617Y202664D01*
X311285Y201862D01*
X311172Y201000D01*
X311285Y200138D01*
X311617Y199336D01*
X312146Y198646D01*
X312836Y198117D01*
X313175Y197977D01*
Y188000D01*
X313275Y187493D01*
X313563Y187063D01*
X321563Y179063D01*
X321993Y178775D01*
X322500Y178674D01*
X345487D01*
X345722Y178107D01*
X346323Y177323D01*
X347107Y176722D01*
X348020Y176344D01*
X349000Y176215D01*
X349980Y176344D01*
X350893Y176722D01*
X351677Y177323D01*
X352278Y178107D01*
X352656Y179020D01*
X352785Y180000D01*
X352656Y180980D01*
X352278Y181893D01*
X351677Y182676D01*
X350893Y183278D01*
X349980Y183656D01*
X349000Y183785D01*
X348020Y183656D01*
X347107Y183278D01*
X346323Y182676D01*
X345722Y181893D01*
X345487Y181325D01*
X323049D01*
X317772Y186603D01*
X318055Y187027D01*
X318638Y186785D01*
X319500Y186671D01*
X320361Y186785D01*
X321164Y187118D01*
X321854Y187646D01*
X322382Y188336D01*
X322523Y188674D01*
X345487D01*
X345722Y188107D01*
X346323Y187323D01*
X347107Y186722D01*
X348020Y186344D01*
X349000Y186215D01*
X349980Y186344D01*
X350893Y186722D01*
X351677Y187323D01*
X352278Y188107D01*
X352656Y189020D01*
X352785Y190000D01*
X352656Y190980D01*
X352278Y191893D01*
X351677Y192676D01*
X350893Y193278D01*
X349980Y193656D01*
X349000Y193785D01*
X348020Y193656D01*
X347107Y193278D01*
X346323Y192676D01*
X345722Y191893D01*
X345487Y191325D01*
X322523D01*
X322382Y191664D01*
X321854Y192354D01*
X321164Y192883D01*
X320361Y193215D01*
X319500Y193328D01*
X318638Y193215D01*
X317836Y192883D01*
X317146Y192354D01*
X316617Y191664D01*
X316325Y190959D01*
X315826Y191059D01*
Y197977D01*
X316164Y198117D01*
X316854Y198646D01*
X317383Y199336D01*
X317715Y200138D01*
X317828Y201000D01*
X317715Y201862D01*
X317383Y202664D01*
X316854Y203354D01*
X316164Y203883D01*
X315361Y204215D01*
X314500Y204328D01*
D02*
G37*
G36*
X289750Y188355D02*
X286100D01*
Y186055D01*
X289750D01*
Y188355D01*
D02*
G37*
G36*
X285100D02*
X281450D01*
Y186055D01*
X285100D01*
Y188355D01*
D02*
G37*
G36*
X289750Y185055D02*
X286100D01*
Y182755D01*
X289750D01*
Y185055D01*
D02*
G37*
G36*
X285100D02*
X281450D01*
Y182755D01*
X285100D01*
Y185055D01*
D02*
G37*
G36*
X301000Y186816D02*
X295500D01*
X295188Y186754D01*
X294923Y186577D01*
X294746Y186312D01*
X294684Y186000D01*
Y183097D01*
X294672Y183000D01*
X294684Y182903D01*
Y178590D01*
X289550D01*
Y179100D01*
X281650D01*
Y173900D01*
X289550D01*
Y174410D01*
X294684D01*
Y166000D01*
X294746Y165688D01*
X294923Y165423D01*
X295188Y165246D01*
X295500Y165184D01*
X297354D01*
Y164850D01*
X305646D01*
Y165184D01*
X307500D01*
X307812Y165246D01*
X308077Y165423D01*
X308254Y165688D01*
X308316Y166000D01*
Y180000D01*
X308254Y180312D01*
X308077Y180577D01*
X307812Y180754D01*
X307500Y180816D01*
X301816D01*
Y186000D01*
X301754Y186312D01*
X301577Y186577D01*
X301312Y186754D01*
X301000Y186816D01*
D02*
G37*
G36*
X135500Y175464D02*
Y172500D01*
X138464D01*
X138410Y172914D01*
X138057Y173765D01*
X137496Y174496D01*
X136765Y175057D01*
X135914Y175410D01*
X135500Y175464D01*
D02*
G37*
G36*
X134500D02*
X134086Y175410D01*
X133235Y175057D01*
X132504Y174496D01*
X131943Y173765D01*
X131590Y172914D01*
X131536Y172500D01*
X134500D01*
Y175464D01*
D02*
G37*
G36*
X349500Y173921D02*
Y170500D01*
X352921D01*
X352851Y171032D01*
X352453Y171993D01*
X351819Y172819D01*
X350993Y173453D01*
X350032Y173851D01*
X349500Y173921D01*
D02*
G37*
G36*
X348500D02*
X347968Y173851D01*
X347007Y173453D01*
X346181Y172819D01*
X345547Y171993D01*
X345149Y171032D01*
X345079Y170500D01*
X348500D01*
Y173921D01*
D02*
G37*
G36*
X263550Y183616D02*
X257250D01*
X256938Y183554D01*
X256673Y183377D01*
X256496Y183112D01*
X256434Y182800D01*
Y170200D01*
X256496Y169888D01*
X256673Y169623D01*
X256938Y169446D01*
X257250Y169384D01*
X263550D01*
X263862Y169446D01*
X264127Y169623D01*
X264304Y169888D01*
X264366Y170200D01*
Y182800D01*
X264304Y183112D01*
X264127Y183377D01*
X263862Y183554D01*
X263550Y183616D01*
D02*
G37*
G36*
X138464Y171500D02*
X135500D01*
Y168536D01*
X135914Y168590D01*
X136765Y168943D01*
X137496Y169504D01*
X138057Y170235D01*
X138410Y171086D01*
X138464Y171500D01*
D02*
G37*
G36*
X134500D02*
X131536D01*
X131590Y171086D01*
X131943Y170235D01*
X132504Y169504D01*
X133235Y168943D01*
X134086Y168590D01*
X134500Y168536D01*
Y171500D01*
D02*
G37*
G36*
X352921Y169500D02*
X349500D01*
Y166079D01*
X350032Y166149D01*
X350993Y166547D01*
X351819Y167181D01*
X352453Y168007D01*
X352851Y168968D01*
X352921Y169500D01*
D02*
G37*
G36*
X348500D02*
X345079D01*
X345149Y168968D01*
X345547Y168007D01*
X346181Y167181D01*
X347007Y166547D01*
X347968Y166149D01*
X348500Y166079D01*
Y169500D01*
D02*
G37*
G36*
X305847Y160350D02*
X302000D01*
Y157685D01*
X305847D01*
Y160350D01*
D02*
G37*
G36*
X301000D02*
X297153D01*
Y157685D01*
X301000D01*
Y160350D01*
D02*
G37*
G36*
X203500Y191316D02*
X155500D01*
X155188Y191254D01*
X154923Y191077D01*
X154746Y190812D01*
X154684Y190500D01*
Y180500D01*
X154746Y180188D01*
X154923Y179923D01*
X155188Y179746D01*
X155500Y179684D01*
X163394D01*
X163506Y179565D01*
X163721Y179184D01*
X163684Y179000D01*
Y173500D01*
X163721Y173316D01*
X163506Y172935D01*
X163394Y172816D01*
X151000D01*
X150688Y172754D01*
X150423Y172577D01*
X150246Y172312D01*
X150184Y172000D01*
Y164859D01*
X149909D01*
Y157550D01*
X165091D01*
Y157684D01*
X169409D01*
Y157550D01*
X184591D01*
Y157684D01*
X188909D01*
Y157550D01*
X204091D01*
Y164859D01*
X203816D01*
Y172000D01*
X203754Y172312D01*
X203577Y172577D01*
X203312Y172754D01*
X203000Y172816D01*
X190106D01*
X189994Y172935D01*
X189779Y173316D01*
X189816Y173500D01*
Y179000D01*
X189779Y179184D01*
X189994Y179565D01*
X190106Y179684D01*
X203500D01*
X203812Y179746D01*
X204077Y179923D01*
X204254Y180188D01*
X204316Y180500D01*
Y190500D01*
X204254Y190812D01*
X204077Y191077D01*
X203812Y191254D01*
X203500Y191316D01*
D02*
G37*
G36*
X352753Y163753D02*
X345247D01*
Y156247D01*
X352753D01*
Y163753D01*
D02*
G37*
G36*
X305847Y156685D02*
X302000D01*
Y154020D01*
X305847D01*
Y156685D01*
D02*
G37*
G36*
X301000D02*
X297153D01*
Y154020D01*
X301000D01*
Y156685D01*
D02*
G37*
G36*
X274350Y156846D02*
X271685D01*
Y153000D01*
X274350D01*
Y156846D01*
D02*
G37*
G36*
X270685D02*
X268020D01*
Y153000D01*
X270685D01*
Y156846D01*
D02*
G37*
G36*
X363500Y154464D02*
Y151500D01*
X366464D01*
X366410Y151914D01*
X366057Y152765D01*
X365496Y153496D01*
X364765Y154057D01*
X363914Y154410D01*
X363500Y154464D01*
D02*
G37*
G36*
X362500D02*
X362086Y154410D01*
X361235Y154057D01*
X360504Y153496D01*
X359943Y152765D01*
X359590Y151914D01*
X359536Y151500D01*
X362500D01*
Y154464D01*
D02*
G37*
G36*
X274350Y152000D02*
X271685D01*
Y148153D01*
X274350D01*
Y152000D01*
D02*
G37*
G36*
X270685D02*
X268020D01*
Y148153D01*
X270685D01*
Y152000D01*
D02*
G37*
G36*
X366464Y150500D02*
X363500D01*
Y147536D01*
X363914Y147590D01*
X364765Y147943D01*
X365496Y148504D01*
X366057Y149235D01*
X366410Y150086D01*
X366464Y150500D01*
D02*
G37*
G36*
X362500D02*
X359536D01*
X359590Y150086D01*
X359943Y149235D01*
X360504Y148504D01*
X361235Y147943D01*
X362086Y147590D01*
X362500Y147536D01*
Y150500D01*
D02*
G37*
G36*
X204291Y140650D02*
X197000D01*
Y137295D01*
X204291D01*
Y140650D01*
D02*
G37*
G36*
X196000D02*
X188709D01*
Y137295D01*
X196000D01*
Y140650D01*
D02*
G37*
G36*
X184791D02*
X177500D01*
Y137295D01*
X184791D01*
Y140650D01*
D02*
G37*
G36*
X176500D02*
X169209D01*
Y137295D01*
X176500D01*
Y140650D01*
D02*
G37*
G36*
X165291D02*
X158000D01*
Y137295D01*
X165291D01*
Y140650D01*
D02*
G37*
G36*
X157000D02*
X149709D01*
Y137295D01*
X157000D01*
Y140650D01*
D02*
G37*
G36*
X204291Y136295D02*
X197000D01*
Y132941D01*
X204291D01*
Y136295D01*
D02*
G37*
G36*
X196000D02*
X188709D01*
Y132941D01*
X196000D01*
Y136295D01*
D02*
G37*
G36*
X184791D02*
X177500D01*
Y132941D01*
X184791D01*
Y136295D01*
D02*
G37*
G36*
X176500D02*
X169209D01*
Y132941D01*
X176500D01*
Y136295D01*
D02*
G37*
G36*
X165291D02*
X158000D01*
Y132941D01*
X165291D01*
Y136295D01*
D02*
G37*
G36*
X157000D02*
X149709D01*
Y132941D01*
X157000D01*
Y136295D01*
D02*
G37*
G36*
X322031Y136358D02*
X310673D01*
Y125000D01*
X322031D01*
Y136358D01*
D02*
G37*
G36*
X309673D02*
X298315D01*
Y125000D01*
X309673D01*
Y136358D01*
D02*
G37*
G36*
X192500Y121921D02*
Y118500D01*
X195921D01*
X195851Y119032D01*
X195453Y119993D01*
X194819Y120819D01*
X193993Y121453D01*
X193032Y121851D01*
X192500Y121921D01*
D02*
G37*
G36*
X191500D02*
X190968Y121851D01*
X190007Y121453D01*
X189181Y120819D01*
X188547Y119993D01*
X188149Y119032D01*
X188079Y118500D01*
X191500D01*
Y121921D01*
D02*
G37*
G36*
X175753Y121753D02*
X168247D01*
Y114247D01*
X175753D01*
Y121753D01*
D02*
G37*
G36*
X222000Y121785D02*
X221020Y121656D01*
X220107Y121278D01*
X219323Y120677D01*
X218722Y119893D01*
X218344Y118980D01*
X218215Y118000D01*
X218344Y117020D01*
X218722Y116107D01*
X219323Y115323D01*
X220107Y114722D01*
X221020Y114344D01*
X222000Y114215D01*
X222980Y114344D01*
X223893Y114722D01*
X224676Y115323D01*
X225278Y116107D01*
X225656Y117020D01*
X225785Y118000D01*
X225656Y118980D01*
X225278Y119893D01*
X224676Y120677D01*
X223893Y121278D01*
X222980Y121656D01*
X222000Y121785D01*
D02*
G37*
G36*
X212000D02*
X211020Y121656D01*
X210107Y121278D01*
X209324Y120677D01*
X208722Y119893D01*
X208344Y118980D01*
X208215Y118000D01*
X208344Y117020D01*
X208722Y116107D01*
X209324Y115323D01*
X210107Y114722D01*
X211020Y114344D01*
X212000Y114215D01*
X212980Y114344D01*
X213893Y114722D01*
X214676Y115323D01*
X215278Y116107D01*
X215656Y117020D01*
X215785Y118000D01*
X215656Y118980D01*
X215278Y119893D01*
X214676Y120677D01*
X213893Y121278D01*
X212980Y121656D01*
X212000Y121785D01*
D02*
G37*
G36*
X202000D02*
X201020Y121656D01*
X200107Y121278D01*
X199323Y120677D01*
X198722Y119893D01*
X198344Y118980D01*
X198215Y118000D01*
X198344Y117020D01*
X198722Y116107D01*
X199323Y115323D01*
X200107Y114722D01*
X201020Y114344D01*
X202000Y114215D01*
X202980Y114344D01*
X203893Y114722D01*
X204677Y115323D01*
X205278Y116107D01*
X205656Y117020D01*
X205785Y118000D01*
X205656Y118980D01*
X205278Y119893D01*
X204677Y120677D01*
X203893Y121278D01*
X202980Y121656D01*
X202000Y121785D01*
D02*
G37*
G36*
X182000D02*
X181020Y121656D01*
X180107Y121278D01*
X179323Y120677D01*
X178722Y119893D01*
X178344Y118980D01*
X178215Y118000D01*
X178344Y117020D01*
X178722Y116107D01*
X179323Y115323D01*
X180107Y114722D01*
X181020Y114344D01*
X182000Y114215D01*
X182980Y114344D01*
X183893Y114722D01*
X184677Y115323D01*
X185278Y116107D01*
X185656Y117020D01*
X185785Y118000D01*
X185656Y118980D01*
X185278Y119893D01*
X184677Y120677D01*
X183893Y121278D01*
X182980Y121656D01*
X182000Y121785D01*
D02*
G37*
G36*
X195921Y117500D02*
X192500D01*
Y114079D01*
X193032Y114149D01*
X193993Y114547D01*
X194819Y115181D01*
X195453Y116007D01*
X195851Y116968D01*
X195921Y117500D01*
D02*
G37*
G36*
X191500D02*
X188079D01*
X188149Y116968D01*
X188547Y116007D01*
X189181Y115181D01*
X190007Y114547D01*
X190968Y114149D01*
X191500Y114079D01*
Y117500D01*
D02*
G37*
G36*
X289550Y170045D02*
X281650D01*
Y164845D01*
X283765D01*
Y158226D01*
X282185Y156647D01*
X278850D01*
Y148354D01*
X279737D01*
Y135988D01*
X278213Y135622D01*
X276518Y134920D01*
X274953Y133961D01*
X273558Y132769D01*
X272366Y131374D01*
X271407Y129809D01*
X270705Y128114D01*
X270276Y126329D01*
X270132Y124500D01*
X270276Y122671D01*
X270705Y120886D01*
X271407Y119191D01*
X272366Y117626D01*
X273558Y116231D01*
X274953Y115039D01*
X276518Y114080D01*
X278213Y113378D01*
X279997Y112950D01*
X281827Y112806D01*
X283656Y112950D01*
X285440Y113378D01*
X287136Y114080D01*
X288701Y115039D01*
X290096Y116231D01*
X291288Y117626D01*
X292247Y119191D01*
X292949Y120886D01*
X293377Y122671D01*
X293521Y124500D01*
X293377Y126329D01*
X292949Y128114D01*
X292247Y129809D01*
X291288Y131374D01*
X290096Y132769D01*
X288701Y133961D01*
X287136Y134920D01*
X285440Y135622D01*
X283917Y135988D01*
Y148354D01*
X284780D01*
Y154051D01*
X286898Y156168D01*
X287296Y156764D01*
X287435Y157466D01*
Y164845D01*
X289550D01*
Y170045D01*
D02*
G37*
G36*
X322031Y124000D02*
X310673D01*
Y112642D01*
X322031D01*
Y124000D01*
D02*
G37*
G36*
X309673D02*
X298315D01*
Y112642D01*
X309673D01*
Y124000D01*
D02*
G37*
G36*
X387992Y138811D02*
X362008D01*
X361696Y138749D01*
X361431Y138572D01*
X361254Y138307D01*
X361192Y137995D01*
Y112011D01*
X361254Y111699D01*
X361431Y111434D01*
X361696Y111257D01*
X362008Y111195D01*
X387992D01*
X388304Y111257D01*
X388569Y111434D01*
X388746Y111699D01*
X388808Y112011D01*
Y137995D01*
X388746Y138307D01*
X388569Y138572D01*
X388304Y138749D01*
X387992Y138811D01*
D02*
G37*
G36*
X137992D02*
X112008D01*
X111696Y138749D01*
X111431Y138572D01*
X111254Y138307D01*
X111192Y137995D01*
Y112011D01*
X111254Y111699D01*
X111431Y111434D01*
X111696Y111257D01*
X112008Y111195D01*
X137992D01*
X138304Y111257D01*
X138569Y111434D01*
X138746Y111699D01*
X138808Y112011D01*
Y137995D01*
X138746Y138307D01*
X138569Y138572D01*
X138304Y138749D01*
X137992Y138811D01*
D02*
G37*
%LPD*%
G36*
X372160Y241674D02*
X372020Y241656D01*
X371107Y241278D01*
X370323Y240676D01*
X369722Y239893D01*
X369344Y238980D01*
X369215Y238000D01*
X369344Y237020D01*
X369722Y236107D01*
X369944Y235818D01*
X345951Y211825D01*
X286523D01*
X286383Y212164D01*
X285991Y212674D01*
X286222Y213175D01*
X340500D01*
X341007Y213275D01*
X341437Y213563D01*
X370049Y242175D01*
X372127D01*
X372160Y241674D01*
D02*
G37*
G36*
X263550Y170200D02*
X257250D01*
Y182800D01*
X263550D01*
Y170200D01*
D02*
G37*
D13*
X322500Y180000D02*
X349000D01*
X314500Y188000D02*
X322500Y180000D01*
X314500Y188000D02*
Y201000D01*
X283500Y210500D02*
X346500D01*
X373000Y237000D01*
X323000Y243000D02*
X345000Y265000D01*
X258500Y243000D02*
X323000D01*
X259500Y250500D02*
X266000Y257000D01*
X258500Y268000D02*
X290500D01*
X243000Y252500D02*
X258500Y268000D01*
X266000Y257000D02*
X323500D01*
X331500Y265000D01*
X237500Y235000D02*
X308500D01*
X228000Y244500D02*
X237500Y235000D01*
X308500D02*
X318000Y225500D01*
X277000Y214500D02*
X340500D01*
X182500Y244500D02*
X228000D01*
X245000Y242000D02*
X245750D01*
X216000Y271000D02*
X245000Y242000D01*
X369500Y243500D02*
X377500D01*
X340500Y214500D02*
X369500Y243500D01*
X373000Y237000D02*
Y238000D01*
X216000Y271000D02*
Y274500D01*
X377500Y243500D02*
X383000Y238000D01*
X319500Y190000D02*
X349000D01*
X298000Y176500D02*
X304500D01*
X281815Y152500D02*
Y153681D01*
D18*
X301500Y157185D02*
D03*
Y167815D02*
D03*
D20*
X349000Y160000D02*
D03*
X383000Y218000D02*
D03*
D24*
X271185Y152500D02*
D03*
X281815D02*
D03*
D56*
X125000Y274997D02*
D03*
X375000D02*
D03*
Y124997D02*
D03*
X125000D02*
D03*
D57*
X222000Y118000D02*
D03*
X212000D02*
D03*
X202000D02*
D03*
X192000D02*
D03*
X182000D02*
D03*
X294500Y283500D02*
D03*
X304500D02*
D03*
X314500D02*
D03*
X236000Y284500D02*
D03*
Y274500D02*
D03*
X226000Y284500D02*
D03*
Y274500D02*
D03*
X216000Y284500D02*
D03*
X349000Y170000D02*
D03*
Y180000D02*
D03*
Y190000D02*
D03*
X373000Y238000D02*
D03*
X383000D02*
D03*
X373000Y228000D02*
D03*
X383000D02*
D03*
X373000Y218000D02*
D03*
D58*
X172000Y118000D02*
D03*
X284500Y283500D02*
D03*
X216000Y274500D02*
D03*
D59*
X232000Y227000D02*
D03*
X225500Y238500D02*
D03*
D60*
X177425Y207400D02*
D03*
D61*
X125000Y275000D02*
D03*
X375000D02*
D03*
Y125000D02*
D03*
X125000D02*
D03*
D62*
X310173Y124500D02*
D03*
D63*
X281827D02*
D03*
D64*
X343500Y285500D02*
D03*
X298000Y183000D02*
D03*
X314500Y201000D02*
D03*
X283500Y210500D02*
D03*
X290000Y205000D02*
D03*
X259500Y250500D02*
D03*
X258500Y243000D02*
D03*
X267500Y248500D02*
D03*
X243000Y252500D02*
D03*
X363000Y151000D02*
D03*
X345000Y265000D02*
D03*
X331500D02*
D03*
X337500Y226000D02*
D03*
X135000Y172000D02*
D03*
X224000Y219000D02*
D03*
X277000Y214500D02*
D03*
X308000Y262000D02*
D03*
X318000Y225500D02*
D03*
X319500Y190000D02*
D03*
X290500Y268000D02*
D03*
X182500Y244500D02*
D03*
X245750Y242000D02*
D03*
X155000Y229000D02*
D03*
X304500Y176500D02*
D03*
X298000D02*
D03*
X173500Y169000D02*
D03*
X188500D02*
D03*
X167500Y176500D02*
D03*
X186000D02*
D03*
X160500Y183500D02*
D03*
X166500Y186000D02*
D03*
X193000D02*
D03*
X199500D02*
D03*
X256000Y210000D02*
D03*
X249500D02*
D03*
Y203500D02*
D03*
X256000D02*
D03*
X217000Y202500D02*
D03*
X200000Y196500D02*
D03*
D65*
X131124Y281124D02*
D03*
X133661Y275000D02*
D03*
X131124Y268876D02*
D03*
X125000Y266339D02*
D03*
X118876Y268876D02*
D03*
X116339Y275000D02*
D03*
X118876Y281124D02*
D03*
X125000Y283661D02*
D03*
X381124Y281124D02*
D03*
X383661Y275000D02*
D03*
X381124Y268876D02*
D03*
X375000Y266339D02*
D03*
X368876Y268876D02*
D03*
X366339Y275000D02*
D03*
X368876Y281124D02*
D03*
X375000Y283661D02*
D03*
X381124Y131124D02*
D03*
X383661Y125000D02*
D03*
X381124Y118876D02*
D03*
X375000Y116339D02*
D03*
X368876Y118876D02*
D03*
X366339Y125000D02*
D03*
X368876Y131124D02*
D03*
X375000Y133661D02*
D03*
X131124Y131124D02*
D03*
X133661Y125000D02*
D03*
X131124Y118876D02*
D03*
X125000Y116339D02*
D03*
X118876Y118876D02*
D03*
X116339Y125000D02*
D03*
X118876Y131124D02*
D03*
X125000Y133661D02*
D03*
D66*
X157500Y136795D02*
D03*
Y161205D02*
D03*
X177000Y136795D02*
D03*
Y161205D02*
D03*
X196500Y136795D02*
D03*
Y161205D02*
D03*
D67*
X285600Y185555D02*
D03*
Y176500D02*
D03*
Y167445D02*
D03*
D68*
X225500Y238500D02*
X232000Y232000D01*
Y227000D02*
Y232000D01*
X285600Y176500D02*
X298000D01*
X281827Y124500D02*
Y152488D01*
X281815Y152500D02*
X281827Y152488D01*
D69*
X285600Y157466D02*
Y167445D01*
X281815Y153681D02*
X285600Y157466D01*
D70*
X298250Y182500D02*
D03*
D71*
X301500Y173000D02*
D03*
D72*
X177000Y165250D02*
D03*
D73*
X176750Y176250D02*
D03*
D74*
X179500Y185500D02*
D03*
M02*
