G04*
G04 #@! TF.GenerationSoftware,Altium Limited,Altium Designer,19.1.5 (86)*
G04*
G04 Layer_Color=255*
%FSLAX25Y25*%
%MOIN*%
G70*
G01*
G75*
%ADD18R,0.06693X0.04331*%
%ADD20R,0.05906X0.05906*%
%ADD24R,0.04331X0.06693*%
%ADD57C,0.05906*%
%ADD58R,0.05906X0.05906*%
%ADD59C,0.06000*%
%ADD60C,0.07500*%
%ADD61C,0.14961*%
%ADD62R,0.21717X0.21717*%
%ADD63C,0.21717*%
%ADD66R,0.13583X0.05709*%
%ADD67R,0.06300X0.03600*%
D18*
X301500Y157185D02*
D03*
Y167815D02*
D03*
D20*
X349000Y160000D02*
D03*
X383000Y218000D02*
D03*
D24*
X271185Y152500D02*
D03*
X281815D02*
D03*
D57*
X222000Y118000D02*
D03*
X212000D02*
D03*
X202000D02*
D03*
X192000D02*
D03*
X182000D02*
D03*
X294500Y283500D02*
D03*
X304500D02*
D03*
X314500D02*
D03*
X236000Y284500D02*
D03*
Y274500D02*
D03*
X226000Y284500D02*
D03*
Y274500D02*
D03*
X216000Y284500D02*
D03*
X349000Y170000D02*
D03*
Y180000D02*
D03*
Y190000D02*
D03*
X373000Y238000D02*
D03*
X383000D02*
D03*
X373000Y228000D02*
D03*
X383000D02*
D03*
X373000Y218000D02*
D03*
D58*
X172000Y118000D02*
D03*
X284500Y283500D02*
D03*
X216000Y274500D02*
D03*
D59*
X232000Y227000D02*
D03*
X225500Y238500D02*
D03*
D60*
X177425Y207400D02*
D03*
D61*
X125000Y275000D02*
D03*
X375000D02*
D03*
Y125000D02*
D03*
X125000D02*
D03*
D62*
X310173Y124500D02*
D03*
D63*
X281827D02*
D03*
D66*
X157500Y136795D02*
D03*
Y161205D02*
D03*
X177000Y136795D02*
D03*
Y161205D02*
D03*
X196500Y136795D02*
D03*
Y161205D02*
D03*
D67*
X285600Y185555D02*
D03*
Y176500D02*
D03*
Y167445D02*
D03*
M02*
